<svg xmlns="http://www.w3.org/2000/svg" width="27.298" height="16.272" viewBox="0 0 27.298 16.272">
    <g>
        <path fill="#fff" d="M13.649 98.725c-5.216 0-9.945 2.854-13.436 7.488a1.081 1.081 0 0 0 0 1.29C3.7 112.144 8.433 115 13.649 115s9.945-2.854 13.436-7.488a1.081 1.081 0 0 0 0-1.29c-3.49-4.643-8.22-7.497-13.436-7.497zm.374 13.866a5.742 5.742 0 1 1 5.355-5.355 5.745 5.745 0 0 1-5.355 5.354zm-.173-2.647a3.092 3.092 0 1 1 2.887-2.887 3.087 3.087 0 0 1-2.887 2.887z" transform="translate(0 -98.725)"/>
    </g>
</svg>
